<svg xmlns="http://www.w3.org/2000/svg" viewBox="0 0 303 99.58"><title>Asset 2</title><g id="Layer_2" data-name="Layer 2"><g id="Layer_1-2" data-name="Layer 1"><path d="M28.47,10.95H123a29.79,29.79,0,0,1,8.13-8.25c.27-.18.55-.34.82-.51L24.09,6.57A4.39,4.39,0,0,0,28.47,10.95Z"/><path d="M119.44,19.71,0,24.09a4.39,4.39,0,0,0,4.38,4.38H116.62A48.31,48.31,0,0,1,119.44,19.71Z"/><path d="M115.34,40.46c0-1.09,0-2.16.09-3.23L15.33,41.61A4.39,4.39,0,0,0,19.71,46h96A39.75,39.75,0,0,1,115.34,40.46Z"/><path d="M124.3,63.5a18.22,18.22,0,0,1-3.09-2.68,20.21,20.21,0,0,1-3.77-6.08L37.23,59.12a4.39,4.39,0,0,0,4.38,4.38Z"/><path d="M139.32,4.38c-.27.17-.55.33-.82.51a29.79,29.79,0,0,0-8.13,8.25A40.3,40.3,0,0,0,127,19.36l-.14.34A48.31,48.31,0,0,0,124,28.47a53.7,53.7,0,0,0-1.19,8.76c-.06,1.07-.09,2.14-.09,3.23a39.76,39.76,0,0,0,.37,5.53,27.37,27.37,0,0,0,1.74,6.57,20.21,20.21,0,0,0,3.77,6.08,18.23,18.23,0,0,0,3.09,2.68Q137.06,65,145.34,65a43.63,43.63,0,0,0,18.4-3.89v-14a53.3,53.3,0,0,1-8.36,3,29,29,0,0,1-7,.89,8.21,8.21,0,0,1-6.73-2.85A8.78,8.78,0,0,1,140.36,46a16.82,16.82,0,0,1-1.08-6.39c0-.8,0-1.58.09-2.37a38.29,38.29,0,0,1,1.47-8.76c.17-.57.32-1.15.51-1.71a26.49,26.49,0,0,1,2.75-5.7,18.75,18.75,0,0,1,3-3.59,11.7,11.7,0,0,1,8.15-3.37A19.63,19.63,0,0,1,162,15.28a40.67,40.67,0,0,1,7.15,3.57l6.19-13.18A37.1,37.1,0,0,0,155.21,0,29.44,29.44,0,0,0,139.32,4.38Z"/><path d="M208.2,21.27h-.34A14.18,14.18,0,0,0,203.09,16a11.71,11.71,0,0,0-6.19-1.62,15.24,15.24,0,0,0-10.31,4.11q-4.66,4.11-7.72,12.14a44.25,44.25,0,0,0-3.05,15.78q0,9,3.43,13.85t10,4.82a13.19,13.19,0,0,0,6.15-1.41,14.47,14.47,0,0,0,5.06-4.78h.33l-.42,5.32h12.92l10-49h-13Zm-5.23,21a19.59,19.59,0,0,1-3,6.76q-1.9,2.53-4,2.53-3.6,0-3.6-6.18a28.24,28.24,0,0,1,2.57-12.17q2.57-5.47,5.75-5.47a2.74,2.74,0,0,1,2.59,1.71A10.34,10.34,0,0,1,204.1,34,32.12,32.12,0,0,1,203,42.32Z"/><path d="M262,14.35a14.88,14.88,0,0,0-8.32,2.1,19.56,19.56,0,0,0-5.9,6.94h-.33l.75-8.17H235.25l-10,49h16.18l4.43-21.52q1.34-6.27,3.91-9.31a8.54,8.54,0,0,1,6.88-3,13.16,13.16,0,0,1,5.14,1l3.51-16.55A11.34,11.34,0,0,0,262,14.35Z"/><path d="M289.58,33.37a35.13,35.13,0,0,1-4.29-2.46A2.71,2.71,0,0,1,284,28.7q0-2.94,3.18-2.94a14.93,14.93,0,0,1,5.08,1.1,27.42,27.42,0,0,1,5.71,3L303,18.93a28.76,28.76,0,0,0-7.49-3.46A30.37,30.37,0,0,0,287,14.35q-9.33,0-14.39,4t-5.06,11.45a14.62,14.62,0,0,0,2,7.91A17.59,17.59,0,0,0,276,43.48a32.43,32.43,0,0,1,5.44,3.65,3.6,3.6,0,0,1,1.09,2.61A2.46,2.46,0,0,1,281.13,52a8.94,8.94,0,0,1-4.26.8,26.29,26.29,0,0,1-6.69-.86,30.65,30.65,0,0,1-7.15-3V62.33Q268.62,65,277.91,65q10.2,0,15.64-4.63T299,47.2Q299,38.21,289.58,33.37Z"/><path d="M43.23,82a10.57,10.57,0,0,0-3.45,4.44,15.34,15.34,0,0,0-1.25,6.22,6.28,6.28,0,0,0,6.88,6.9,10.13,10.13,0,0,0,4.66-1.06V96.1a21.1,21.1,0,0,1-2.12.79,7.65,7.65,0,0,1-2.29.34,4,4,0,0,1-3.1-1.2,4.72,4.72,0,0,1-1.12-3.36,13.82,13.82,0,0,1,.89-5,8.5,8.5,0,0,1,2.45-3.59,5.29,5.29,0,0,1,3.45-1.29,9.55,9.55,0,0,1,3.69.86l.79-2.38a12.37,12.37,0,0,0-4.52-.86A8.24,8.24,0,0,0,43.23,82Z"/><path d="M89.25,88.76a15.56,15.56,0,0,1-1.67,4.55,9,9,0,0,1-2.53,2.9,5,5,0,0,1-2.92,1,2.16,2.16,0,0,1-2.48-2.41,12.68,12.68,0,0,1,.3-2.34l2.53-11.72H79.62l-2.46,11.4a15.8,15.8,0,0,0-.37,2.9A4.4,4.4,0,0,0,78,98.4a4.72,4.72,0,0,0,3.39,1.17,6.36,6.36,0,0,0,3.1-.83,11.07,11.07,0,0,0,3.15-2.94h.2l-.37,3.42h2.34l3.9-18.49h-2.8Z"/><path d="M121.32,81.84a4.65,4.65,0,0,0-1.7,3.75,4.45,4.45,0,0,0,.91,2.8,10.24,10.24,0,0,0,3.1,2.41,11.93,11.93,0,0,1,2.55,1.81,2.34,2.34,0,0,1,.59,1.62,2.62,2.62,0,0,1-1.08,2.16,5.14,5.14,0,0,1-3.21.84,9.3,9.3,0,0,1-2.53-.39,10.51,10.51,0,0,1-2.55-1.1v2.67a11.21,11.21,0,0,0,5.15,1.16,8.27,8.27,0,0,0,5.25-1.48A5,5,0,0,0,129.67,94a4.41,4.41,0,0,0-.39-1.88,5,5,0,0,0-1.17-1.56,14.38,14.38,0,0,0-2.59-1.74,10.56,10.56,0,0,1-2.47-1.74,2.47,2.47,0,0,1,.29-3.52,3.78,3.78,0,0,1,2.46-.73,9.38,9.38,0,0,1,3.71.73l.94.42.91-2.31a13.05,13.05,0,0,0-5.57-1.25A6.76,6.76,0,0,0,121.32,81.84Z"/><path d="M163.16,76.5H161.5l-2.11,3.85-3.12,1.32L156,82.89h2.9L156.8,93a12.2,12.2,0,0,0-.3,2.53,3.81,3.81,0,0,0,1.12,3,4.69,4.69,0,0,0,3.23,1,7.28,7.28,0,0,0,1.35-.17,7.75,7.75,0,0,0,1.42-.4V96.83a9.12,9.12,0,0,1-2.43.44,1.81,1.81,0,0,1-1.37-.51,2,2,0,0,1-.49-1.45,12,12,0,0,1,.3-2.23l2.18-10.19h4.6l.44-2.14h-4.62Z"/><path d="M199,80.51A7.74,7.74,0,0,0,194.38,82a10.22,10.22,0,0,0-3.32,4.33,14.93,14.93,0,0,0-1.23,6,7.19,7.19,0,0,0,1.84,5.21,6.72,6.72,0,0,0,5.08,1.91A7.68,7.68,0,0,0,201.43,98a10.35,10.35,0,0,0,3.29-4.35,15,15,0,0,0,1.21-6,7.15,7.15,0,0,0-1.86-5.22A6.75,6.75,0,0,0,199,80.51Zm3.2,11.92a8,8,0,0,1-2.18,3.5,4.65,4.65,0,0,1-3.15,1.23A3.9,3.9,0,0,1,193.8,96a5,5,0,0,1-1.07-3.42,14.44,14.44,0,0,1,.8-4.93,8,8,0,0,1,2.26-3.47,4.94,4.94,0,0,1,3.3-1.25,3.6,3.6,0,0,1,2.86,1.21A4.61,4.61,0,0,1,203,87.24,15.83,15.83,0,0,1,202.22,92.43Z"/><path d="M253.71,80.41a6.19,6.19,0,0,0-3.31,1,10.83,10.83,0,0,0-3.09,3.13h-.13A5,5,0,0,0,246,81.51a3.83,3.83,0,0,0-2.94-1.1,5.77,5.77,0,0,0-3,.88,10.57,10.57,0,0,0-2.93,2.88h-.17l.37-3.42H235L231,99.24h2.83l1.7-8a16.68,16.68,0,0,1,1.58-4.53,8.81,8.81,0,0,1,2.36-2.89,4.53,4.53,0,0,1,2.76-1,2.16,2.16,0,0,1,1.79.66,2.88,2.88,0,0,1,.52,1.84,13.85,13.85,0,0,1-.3,2.28l-2.5,11.67h2.83l1.8-8.43a15.15,15.15,0,0,1,1.53-4.26,8.52,8.52,0,0,1,2.34-2.77,4.53,4.53,0,0,1,2.7-1,2.12,2.12,0,0,1,2.41,2.31,15.31,15.31,0,0,1-.34,2.46l-2.5,11.67h2.87l2.43-11.33a16.08,16.08,0,0,0,.37-3A4.47,4.47,0,0,0,257,81.56,4.54,4.54,0,0,0,253.71,80.41Z"/><path d="M286.64,81.84a4.65,4.65,0,0,0-1.7,3.75,4.45,4.45,0,0,0,.91,2.8A10.24,10.24,0,0,0,289,90.8a11.93,11.93,0,0,1,2.55,1.81,2.34,2.34,0,0,1,.59,1.62A2.62,2.62,0,0,1,291,96.39a5.14,5.14,0,0,1-3.21.84,9.3,9.3,0,0,1-2.53-.39,10.51,10.51,0,0,1-2.55-1.1v2.67a11.21,11.21,0,0,0,5.15,1.16,8.27,8.27,0,0,0,5.25-1.48A5,5,0,0,0,295,94a4.41,4.41,0,0,0-.39-1.88,5,5,0,0,0-1.17-1.56,14.38,14.38,0,0,0-2.59-1.74,10.56,10.56,0,0,1-2.47-1.74,2.47,2.47,0,0,1,.29-3.52,3.78,3.78,0,0,1,2.46-.73,9.38,9.38,0,0,1,3.71.73l.94.42.91-2.31a13.05,13.05,0,0,0-5.57-1.25A6.76,6.76,0,0,0,286.64,81.84Z"/></g></g></svg>